<svg xmlns="http://www.w3.org/2000/svg" width="13.271" height="9.961" viewBox="0 0 13.271 9.961">
  <defs>
    <style>
      .cls-1 {
        fill: #400080;
      }
    </style>
  </defs>
  <path id="Icon" class="cls-1" d="M732.332,1379.133a.413.413,0,0,0-.586,0l-6.184,6.162a.411.411,0,0,1-.587,0l-2.71-2.762a.413.413,0,0,0-.587,0l-1.2,1.078a.416.416,0,0,0-.123.291.435.435,0,0,0,.123.3l2.732,2.869c.161.164.426.43.587.593l1.175,1.185a.416.416,0,0,0,.587,0l7.945-7.94a.423.423,0,0,0,0-.593Z" transform="translate(-720.357 -1379.011)"/>
</svg>
